# xmcd CD database file
#
# Track frame offsets:
#	150
#	27056
#	61830
#	86402
#	108027
#	143839
#	155294
#	186710
#	227938
#	237839
#
# Disc length: 3501 seconds
#
# Revision: 0
# Processed by: cddbd v1.5.1PL2 Copyright (c) Steve Scherf et al.
# Submitted via: CDex 1.51
#
DISCID=780dab0a
DTITLE=Nick Drozdoff - No Man Is An Island
DYEAR=2006
DGENRE=Jazz
TTITLE0=As a Gnome Ran
TTITLE1=A Waltz For Natalia
TTITLE2=What Is This Thing Called Love
TTITLE3=A Nightingale Sang In Berkeley Square
TTITLE4=Blueness
TTITLE5=Jam Cat Boogie
TTITLE6=Meditation #1
TTITLE7=Punk's Funk (For Colin)
TTITLE8=Soliloquy
TTITLE9=Blues Waltz
EXTD=YEAR: 2006
EXTT0=
EXTT1=
EXTT2=
EXTT3=
EXTT4=
EXTT5=
EXTT6=
EXTT7=
EXTT8=
EXTT9=
PLAYORDER=
